<?xml version="1.0" encoding="utf-8"?>
<!-- Generator: Adobe Illustrator 19.2.1, SVG Export Plug-In . SVG Version: 6.00 Build 0)  -->
<svg version="1.1" id="Layer_1" xmlns="http://www.w3.org/2000/svg" xmlns:xlink="http://www.w3.org/1999/xlink" x="0px" y="0px"
	 viewBox="0 0 104.008 150" style="enable-background:new 0 0 104.008 150;" xml:space="preserve">
<style type="text/css">
	.st0{fill:#895734;}
	.st1{fill:#FFFFFF;}
	.st2{fill:#CBDEAE;}
	.st3{fill:#869A42;}
	.st4{fill:#6D6E71;}
	.st5{fill:#B6B8BA;}
	.st6{fill:#414042;}
	.st7{fill:#C6C5C6;}
	.st8{fill:#333233;}
	.st9{fill:#D7AC79;}
	.st10{fill:#FFD425;}
	.st11{fill:#C18049;}
	.st12{fill:#C39A61;}
	.st13{fill:#FFBB28;}
	.st14{fill:#B16F3B;}
	.st15{fill:#474A4C;}
	.st16{fill:#E0E1E2;}
	.st17{fill:#CED0D1;}
	.st18{fill:#6DD093;}
	.st19{fill:#73D9FF;}
	.st20{fill:#B3A092;}
	.st21{fill:#73747A;}
	.st22{fill:#E58B7E;}
	.st23{fill:#A3D3E3;}
	.st24{fill:#EDC98B;}
	.st25{fill:#C2E0BB;}
	.st26{fill:#F1B2AD;}
	.st27{fill:#EDB86E;}
	.st28{fill:#F1999C;}
	.st29{fill:#9F755A;}
	.st30{fill:#D8A899;}
	.st31{fill:#F5AA40;}
	.st32{fill:#C88F7B;}
	.st33{fill:#EBECEC;}
	.st34{fill:#F19C1A;}
	.st35{fill:#594A42;}
	.st36{fill:#84949D;}
	.st37{fill:#CBCDCE;}
	.st38{fill:#B4CDFF;}
	.st39{fill:#9CCCA1;}
	.st40{fill:#86BB8B;}
	.st41{fill:#99B5E8;}
	.st42{fill:#4A5F68;}
	.st43{fill:#FFB455;}
	.st44{fill:#E99443;}
	.st45{fill:#FFC75D;}
	.st46{fill:#F12C23;}
	.st47{fill:#8E1E1A;}
	.st48{opacity:0.4;}
	.st49{fill:none;}
	.st50{fill:#BCD6FF;}
	.st51{fill:#475CCA;}
	.st52{fill:#958079;}
	.st53{fill:#D0945B;}
	.st54{fill:#7C6A64;}
	.st55{fill:#B3804D;}
	.st56{fill:#5E3D56;}
	.st57{fill:#4A4A4B;}
	.st58{fill:#FFBD56;}
	.st59{opacity:0.7;fill:#FFB13C;}
	.st60{fill:#312E32;}
	.st61{fill:#DFA74D;}
	.st62{fill:#F2F2F2;}
	.st63{fill:#2B4980;}
</style>
<g>
	<g>
		<g>
			<circle class="st63" cx="53" cy="91.005" r="32"/>
		</g>
		<g>
			<path class="st16" d="M36,91.005c0-15.089,10.447-27.731,24.5-31.107c-2.407-0.578-4.916-0.893-7.5-0.893
				c-17.673,0-32,14.327-32,32c0,17.673,14.327,32,32,32c2.584,0,5.093-0.314,7.5-0.893C46.447,118.736,36,106.094,36,91.005z"/>
		</g>
		<g>
			<path class="st16" d="M76.469,55.005H76v-0.47c0-0.276-0.224-0.5-0.5-0.5s-0.5,0.224-0.5,0.5v0.47h-0.477
				c-0.276,0-0.5,0.224-0.5,0.5s0.224,0.5,0.5,0.5H75v0.494c0,0.276,0.224,0.5,0.5,0.5s0.5-0.224,0.5-0.5v-0.494h0.469
				c0.276,0,0.5-0.224,0.5-0.5S76.745,55.005,76.469,55.005z"/>
			<path class="st16" d="M24.464,56.005h-0.469v-0.47c0-0.276-0.224-0.5-0.5-0.5s-0.5,0.224-0.5,0.5v0.47h-0.477
				c-0.276,0-0.5,0.224-0.5,0.5s0.224,0.5,0.5,0.5h0.477v0.494c0,0.276,0.224,0.5,0.5,0.5s0.5-0.224,0.5-0.5v-0.494h0.469
				c0.276,0,0.5-0.224,0.5-0.5S24.74,56.005,24.464,56.005z"/>
			<path class="st16" d="M87.477,50.001h-1.47v-1.471c0-0.276-0.224-0.5-0.5-0.5s-0.5,0.224-0.5,0.5v1.471H83.53
				c-0.276,0-0.5,0.224-0.5,0.5s0.224,0.5,0.5,0.5h1.478v1.494c0,0.276,0.224,0.5,0.5,0.5s0.5-0.224,0.5-0.5v-1.494h1.47
				c0.276,0,0.5-0.224,0.5-0.5S87.754,50.001,87.477,50.001z"/>
			<path class="st16" d="M19.461,64.002h-1.47v-1.471c0-0.276-0.224-0.5-0.5-0.5s-0.5,0.224-0.5,0.5v1.471h-1.478
				c-0.276,0-0.5,0.224-0.5,0.5s0.224,0.5,0.5,0.5h1.478v1.495c0,0.276,0.224,0.5,0.5,0.5s0.5-0.224,0.5-0.5v-1.495h1.47
				c0.276,0,0.5-0.224,0.5-0.5S19.737,64.002,19.461,64.002z"/>
			<circle class="st16" cx="83" cy="58.005" r="1"/>
			<circle class="st16" cx="11" cy="47.005" r="1"/>
			<circle class="st16" cx="31.5" cy="34.495" r="1.5"/>
			<circle class="st16" cx="11.484" cy="136.505" r="1.5"/>
			<circle class="st16" cx="93.478" cy="73.499" r="1.5"/>
			<path class="st16" d="M56.464,148.005h-0.469v-0.47c0-0.276-0.224-0.5-0.5-0.5s-0.5,0.224-0.5,0.5v0.47h-0.477
				c-0.276,0-0.5,0.224-0.5,0.5s0.224,0.5,0.5,0.5h0.477v0.494c0,0.276,0.224,0.5,0.5,0.5s0.5-0.224,0.5-0.5v-0.494h0.469
				c0.276,0,0.5-0.224,0.5-0.5S56.74,148.005,56.464,148.005z"/>
			<path class="st16" d="M18.473,116.002h-1.469v-1.471c0-0.276-0.224-0.5-0.5-0.5s-0.5,0.224-0.5,0.5v1.471h-1.478
				c-0.276,0-0.5,0.224-0.5,0.5s0.224,0.5,0.5,0.5h1.478v1.494c0,0.276,0.224,0.5,0.5,0.5s0.5-0.224,0.5-0.5v-1.494h1.469
				c0.276,0,0.5-0.224,0.5-0.5S18.749,116.002,18.473,116.002z"/>
			<circle class="st16" cx="38" cy="129.005" r="1"/>
			<circle class="st16" cx="98.048" cy="98.981" r="1"/>
			<path class="st16" d="M92.477,110.001h-1.47v-1.47c0-0.276-0.224-0.5-0.5-0.5s-0.5,0.224-0.5,0.5v1.47H88.53
				c-0.276,0-0.5,0.224-0.5,0.5s0.224,0.5,0.5,0.5h1.478v1.495c0,0.276,0.224,0.5,0.5,0.5s0.5-0.224,0.5-0.5v-1.495h1.47
				c0.276,0,0.5-0.224,0.5-0.5S92.754,110.001,92.477,110.001z"/>
			<circle class="st16" cx="103.008" cy="118.005" r="1"/>
		</g>
		<g>
			<circle class="st37" cx="26.163" cy="94.662" r="1.844"/>
		</g>
		<g>
			<circle class="st37" cx="44.925" cy="63.454" r="0.922"/>
		</g>
		<g>
			<path class="st37" d="M34.789,75.558c0-2.852-2.312-5.163-5.163-5.163c-0.431,0-0.843,0.068-1.244,0.168
				c-1.481,1.782-2.767,3.73-3.837,5.808c0.392,2.463,2.508,4.35,5.081,4.35C32.478,80.721,34.789,78.41,34.789,75.558z"/>
		</g>
		<g>
			<path class="st37" d="M39.693,108.531c0.496,0,0.979-0.051,1.449-0.139c-2.792-4.3-4.581-9.311-5.029-14.705
				c-2.537,1.303-4.276,3.939-4.276,6.987C31.837,105.013,35.354,108.531,39.693,108.531z"/>
		</g>
	</g>
	<circle class="st16" cx="1" cy="91.97" r="1"/>
</g>
</svg>
